<?xml version="1.0" standalone="no"?>
<!DOCTYPE svg PUBLIC "-//W3C//DTD SVG 20010904//EN"
 "http://www.w3.org/TR/2001/REC-SVG-20010904/DTD/svg10.dtd">
<svg version="1.0" xmlns="http://www.w3.org/2000/svg"
 width="300.000000pt" height="193.000000pt" viewBox="0 0 300.000000 193.000000"
 preserveAspectRatio="xMidYMid meet">
<metadata>
Created by potrace 1.10, written by Peter Selinger 2001-2011
</metadata>
<g transform="translate(0.000000,193.000000) scale(0.100000,-0.100000)"
fill="#000000" stroke="none">
<path d="M2248 1882 c-15 -26 -38 -65 -51 -87 -66 -112 -104 -284 -98 -451 1
-32 8 -49 36 -77 20 -20 30 -39 25 -42 -6 -4 -8 -10 -5 -15 8 -13 -15 -100
-36 -138 -21 -36 -25 -72 -10 -87 14 -15 71 -198 71 -229 0 -15 11 -44 25 -64
14 -20 25 -44 25 -53 0 -8 7 -38 15 -67 11 -35 20 -50 29 -46 8 3 16 -3 19
-15 4 -18 12 -21 49 -19 34 1 37 2 12 5 -44 6 -72 40 -84 101 -5 29 -17 63
-26 77 -14 21 -14 25 -1 25 8 0 21 -9 28 -19 10 -13 31 -20 74 -24 48 -5 57
-3 44 6 -58 45 -73 60 -61 64 6 3 12 9 12 14 0 11 -42 3 -88 -17 -18 -8 -37
-12 -42 -9 -14 8 -13 38 2 53 9 9 7 13 -5 18 -12 4 -17 18 -17 41 0 45 -30
132 -52 155 -24 24 -23 41 5 75 23 27 44 107 45 166 0 37 7 43 28 23 20 -21
28 -14 20 17 -5 21 -11 24 -38 21 -17 -2 -35 -9 -39 -15 -3 -6 -13 7 -21 28
-29 75 10 338 68 453 13 26 24 53 24 59 0 6 4 11 8 11 5 0 19 20 31 45 12 25
30 49 39 55 14 8 13 9 -8 10 -19 0 -31 -11 -52 -48z"/>
<path d="M2345 1917 c-5 -7 -29 -36 -53 -64 -44 -53 -47 -73 -12 -73 20 0 130
115 130 137 0 16 -51 17 -65 0z m25 -15 c0 -5 -14 -21 -31 -38 -31 -28 -31
-24 1 24 15 22 30 29 30 14z"/>
<path d="M2497 1864 c-38 -36 -66 -68 -64 -70 2 -3 38 27 78 65 41 39 70 70
64 70 -5 0 -41 -29 -78 -65z"/>
<path d="M2595 1903 c-19 -28 -29 -77 -15 -68 4 3 14 -2 21 -11 20 -24 68 -46
89 -39 11 3 22 0 27 -8 10 -19 57 -34 51 -17 -2 6 -7 10 -12 8 -12 -5 -35 46
-26 57 5 6 -3 10 -23 10 -18 0 -35 -4 -40 -10 -5 -6 -12 -4 -20 6 -6 9 -18 14
-24 12 -8 -3 -13 3 -13 14 0 30 12 63 22 63 5 0 6 -5 2 -12 -4 -7 -3 -8 5 -4
6 4 9 12 6 17 -11 17 -33 9 -50 -18z"/>
<path d="M2684 1912 c-25 -20 -37 -49 -24 -57 6 -4 14 5 20 19 5 14 13 26 18
26 4 0 17 7 28 15 19 14 19 14 -1 14 -11 1 -29 -7 -41 -17z"/>
<path d="M2793 1902 c-18 -9 -33 -22 -33 -29 0 -20 12 -16 50 17 38 32 33 36
-17 12z"/>
<path d="M2925 1898 c-25 -17 -26 -19 -7 -15 13 3 22 0 23 -6 0 -7 5 -1 10 12
12 31 10 32 -26 9z"/>
<path d="M2840 1727 c0 -7 5 -19 10 -27 7 -12 10 -12 10 -1 0 7 6 11 14 8 10
-4 13 -1 10 8 -7 17 -44 27 -44 12z"/>
<path d="M2908 1703 c-2 -4 -2 -21 2 -38 l6 -30 13 24 c11 20 11 26 -2 38 -8
8 -17 11 -19 6z"/>
<path d="M470 1685 c-54 -17 -116 -77 -135 -131 -11 -30 -18 -38 -35 -37 -50
6 -116 -55 -140 -130 -18 -57 -5 -119 37 -174 29 -37 33 -50 24 -62 -22 -31
-24 -45 -12 -90 26 -99 102 -153 213 -152 55 0 63 -3 94 -33 42 -40 94 -50
167 -31 59 15 118 71 137 131 9 27 17 35 33 33 37 -2 45 0 78 28 85 72 93 202
18 295 -21 25 -21 29 -7 65 19 50 7 99 -38 152 -48 56 -92 75 -172 74 -58 -1
-68 2 -84 23 -11 13 -42 30 -70 39 -60 17 -51 17 -108 0z m124 -40 c20 -8 36
-19 36 -23 0 -4 -37 -27 -81 -51 -122 -68 -111 -49 -110 -200 l2 -132 -41 23
-41 23 3 131 c3 120 5 133 28 167 46 68 129 93 204 62z m209 -69 c50 -18 76
-42 98 -91 16 -35 26 -95 15 -95 -2 0 -45 25 -95 55 -51 30 -98 55 -105 55
-13 0 -183 -94 -200 -111 -21 -20 -31 -8 -28 34 4 42 5 43 89 92 133 78 158
85 226 61z m-501 -202 l3 -116 107 -62 c59 -33 108 -64 108 -67 0 -3 -17 -14
-38 -23 l-38 -17 -90 52 c-106 62 -132 84 -150 126 -28 66 -14 136 39 191 51
53 56 46 59 -84z m495 15 c137 -80 163 -111 163 -195 0 -54 -34 -121 -74 -148
-14 -9 -27 -16 -29 -16 -2 0 -3 53 -3 117 l1 117 -30 19 c-16 11 -68 41 -113
67 l-84 47 34 21 c18 11 36 21 40 21 4 1 47 -22 95 -50z m-143 -70 c5 -4 9
-29 9 -56 0 -45 -2 -49 -44 -75 l-43 -27 -41 24 c-38 23 -40 27 -43 78 l-3 54
43 26 43 25 35 -20 c19 -12 39 -25 44 -29z m105 -56 l31 -18 0 -128 c0 -144
-8 -169 -65 -213 -45 -34 -115 -43 -168 -21 -20 9 -37 20 -37 24 0 4 22 19 48
32 26 13 71 39 100 58 l53 33 -3 125 c-2 69 0 125 4 125 3 0 20 -8 37 -17z
m-93 -155 c-3 -43 -4 -43 -105 -102 -121 -70 -164 -79 -231 -44 -25 13 -54 37
-66 55 -19 29 -40 110 -31 119 2 3 45 -21 96 -51 50 -30 99 -55 109 -55 9 0
62 27 117 60 55 32 103 59 107 59 5 1 6 -18 4 -41z"/>
<path d="M2705 1690 c-9 -14 13 -50 31 -50 9 0 13 5 10 13 -3 6 -9 20 -12 30
-7 19 -20 22 -29 7z"/>
<path d="M2865 1644 c4 -10 8 -27 9 -36 0 -9 3 -15 7 -12 12 7 29 -23 23 -42
-5 -18 -5 -18 6 0 10 15 8 23 -9 47 -12 15 -21 33 -21 38 0 5 -5 13 -12 17 -8
5 -9 2 -3 -12z"/>
<path d="M2770 1637 c-35 -15 -36 -17 -21 -26 9 -6 20 -2 33 11 24 24 21 29
-12 15z"/>
<path d="M2786 1604 c-7 -19 10 -44 30 -44 19 0 18 7 -5 36 -16 20 -20 22 -25
8z"/>
<path d="M2975 1551 c-3 -6 -15 -11 -26 -11 -10 0 -19 -4 -19 -10 0 -5 6 -10
13 -10 18 0 53 27 45 35 -3 3 -9 2 -13 -4z"/>
<path d="M2885 1486 c0 -24 5 -32 23 -34 28 -4 92 16 92 29 0 5 -16 2 -36 -6
-46 -19 -60 -19 -45 -1 9 10 6 17 -12 29 -22 14 -23 14 -22 -17z"/>
<path d="M2430 1485 c0 -16 28 -19 68 -8 17 4 20 8 11 14 -8 4 -19 3 -27 -3
-9 -8 -16 -8 -24 0 -16 16 -28 15 -28 -3z"/>
<path d="M2830 1476 c0 -14 24 -29 33 -19 3 3 3 11 0 19 -7 18 -33 18 -33 0z"/>
<path d="M2435 1429 c-94 -21 -126 -33 -135 -50 -16 -30 2 -29 91 2 83 30 110
31 187 12 34 -8 26 12 -10 24 -53 18 -91 22 -133 12z"/>
<path d="M2740 1430 c0 -5 20 -10 45 -10 33 0 45 -4 45 -15 0 -8 -4 -15 -10
-15 -5 0 -10 -5 -10 -11 0 -7 10 -5 25 5 13 9 40 16 60 16 19 0 35 5 35 10 0
6 -22 10 -50 10 -27 0 -50 5 -50 10 0 6 -20 10 -45 10 -25 0 -45 -4 -45 -10z"/>
<path d="M2941 1388 c-27 -10 -28 -31 -1 -23 11 4 20 2 20 -4 0 -6 5 -11 11
-11 6 0 9 7 5 15 -3 8 -1 15 4 15 5 0 11 -8 13 -17 3 -12 5 -8 6 9 1 28 -14
33 -58 16z"/>
<path d="M2140 1360 c0 -11 62 -42 69 -34 7 7 -22 31 -46 39 -14 4 -23 2 -23
-5z"/>
<path d="M2419 1347 c-21 -16 -30 -45 -16 -50 8 -2 6 -12 -7 -32 -17 -25 -17
-27 -1 -22 9 4 20 7 24 7 4 0 7 10 8 21 2 29 12 37 23 19 6 -8 10 -10 10 -4 0
11 114 14 125 3 4 -5 -40 -19 -140 -46 -18 -5 -18 -7 5 -15 35 -13 135 20 151
50 7 12 16 22 21 22 4 0 8 5 8 10 0 6 -11 10 -25 10 -13 0 -39 9 -57 20 -37
22 -104 26 -129 7z m126 -18 c13 -5 1 -7 -35 -4 -30 2 -56 4 -58 4 -2 1 0 6 3
12 7 10 51 5 90 -12z"/>
<path d="M2830 1331 c0 -5 -12 -11 -27 -13 -25 -4 -26 -5 -9 -13 11 -5 26 -4
37 3 10 7 44 12 74 12 30 0 55 5 55 10 0 6 -28 10 -65 10 -36 0 -65 -4 -65 -9z"/>
<path d="M2274 1273 c-8 -43 -59 -165 -86 -205 -18 -25 -18 -26 1 -21 11 3 22
15 25 28 3 12 15 25 27 28 12 3 20 13 18 24 -1 10 2 32 6 50 7 32 27 45 75 47
20 1 26 7 28 30 3 26 2 28 -12 17 -16 -13 -21 -6 -17 22 0 4 -4 7 -10 7 -6 0
-8 -9 -3 -22 6 -19 4 -19 -19 6 l-26 28 -7 -39z"/>
<path d="M2730 1274 c0 -11 34 -33 51 -34 9 0 19 7 23 15 3 8 12 12 21 9 8 -3
15 -1 15 5 0 15 -57 14 -63 -1 -4 -10 -6 -10 -6 0 -1 12 -41 18 -41 6z"/>
<path d="M2905 1259 c-5 -5 -17 -15 -26 -22 -10 -7 -20 -22 -24 -34 -5 -19 -2
-23 14 -23 11 0 25 9 31 20 6 11 21 20 35 20 29 0 43 18 20 26 -13 6 -14 8 -3
15 9 6 5 9 -12 8 -14 0 -29 -4 -35 -10z"/>
<path d="M2960 1185 c0 -8 -7 -15 -16 -15 -14 0 -14 -3 -4 -15 21 -25 40 -18
40 15 0 17 -4 30 -10 30 -5 0 -10 -7 -10 -15z"/>
<path d="M2850 1120 c0 -11 -19 -41 -41 -65 -23 -25 -38 -45 -35 -45 17 0 51
25 75 53 14 17 37 41 51 54 l25 23 -38 0 c-30 0 -37 -4 -37 -20z"/>
<path d="M2300 1044 c15 -39 12 -42 -14 -9 -20 24 -27 28 -37 18 -10 -10 -10
-13 -1 -13 21 0 52 -39 52 -65 0 -29 -7 -31 -31 -9 -10 9 -29 17 -42 18 -14 0
-23 6 -21 11 2 6 -8 15 -22 22 -21 10 -26 9 -31 -4 -5 -12 7 -28 37 -54 40
-35 43 -40 37 -76 -6 -35 -5 -37 9 -18 8 11 12 26 9 33 -8 21 5 35 20 22 9 -8
15 -8 20 0 3 5 17 10 30 10 41 0 48 63 13 110 -27 37 -41 39 -28 4z"/>
<path d="M2667 936 c-28 -12 -47 -32 -47 -50 0 -5 8 1 19 12 10 12 22 22 27
22 5 0 18 7 28 15 24 18 12 18 -27 1z"/>
<path d="M2687 901 c-47 -36 -50 -57 -3 -26 52 34 45 2 -11 -51 -31 -30 -51
-54 -44 -54 17 0 81 52 81 66 0 7 11 15 25 18 27 7 34 26 10 26 -21 0 -31 30
-14 40 7 5 11 11 9 13 -3 2 -26 -12 -53 -32z"/>
<path d="M2765 842 c-63 -58 -117 -102 -127 -102 -4 0 -8 -4 -8 -9 0 -13 27
-21 46 -14 13 5 13 7 2 15 -10 6 -7 13 15 29 15 12 47 39 70 60 24 22 53 39
67 39 23 1 23 2 5 10 -28 12 -26 13 -70 -28z"/>
<path d="M2230 840 c-8 -5 -11 -10 -6 -10 5 0 4 -6 -2 -13 -7 -8 -7 -17 2 -29
10 -14 31 -18 98 -19 87 -2 123 6 97 22 -8 4 -24 6 -36 3 -15 -4 -42 5 -78 25
-63 35 -56 34 -75 21z"/>
<path d="M2832 830 c-32 -30 -27 -32 16 -8 49 28 48 28 26 28 -11 0 -30 -9
-42 -20z"/>
<path d="M2757 755 c-34 -30 -32 -31 23 -6 31 14 37 20 25 25 -21 8 -15 10
-48 -19z"/>
<path d="M2953 751 c-23 -15 -57 -41 -75 -56 -18 -16 -64 -43 -103 -62 -38
-19 -61 -31 -50 -27 11 4 37 9 57 12 20 2 44 13 54 23 9 10 21 19 26 19 17 0
7 -29 -14 -45 -21 -15 -21 -16 -3 -13 12 2 24 16 31 37 12 37 99 125 115 116
5 -4 9 1 9 9 0 20 3 21 -47 -13z"/>
<path d="M170 652 c-19 -2 -45 -13 -57 -24 -21 -19 -23 -31 -23 -114 0 -87 2
-95 26 -119 l25 -25 -25 -31 c-24 -28 -26 -38 -26 -123 0 -84 2 -95 23 -115
22 -20 32 -21 130 -18 66 2 111 8 121 16 12 10 19 10 38 -3 29 -20 57 -20 87
0 21 15 26 15 62 -1 42 -19 127 -15 140 7 6 9 17 7 43 -7 26 -14 40 -16 57 -9
16 7 32 7 50 1 21 -8 33 -7 54 7 23 15 29 16 48 3 17 -10 66 -14 207 -14 102
-1 193 3 202 8 11 6 26 5 42 -2 14 -7 33 -8 43 -4 10 5 23 7 28 5 25 -7 163
-8 175 0 7 5 24 3 37 -3 19 -9 31 -7 59 8 32 17 35 17 52 2 24 -21 51 -21 81
0 20 14 27 14 45 3 36 -23 107 -23 144 0 51 31 73 76 66 130 -4 25 -14 57 -22
72 -30 51 -110 73 -162 43 -28 -16 -70 -20 -70 -6 0 17 -38 18 -70 3 -29 -14
-34 -14 -61 2 -25 15 -35 16 -59 6 -21 -9 -33 -9 -50 0 -17 9 -26 8 -45 -4
-21 -14 -28 -14 -69 0 -30 10 -62 14 -89 10 -23 -3 -49 -6 -57 -6 -27 -1 -90
12 -90 18 0 3 10 16 23 30 17 19 22 34 20 72 -2 40 3 55 27 86 17 20 30 40 30
44 0 3 -10 16 -23 28 -21 20 -34 22 -148 22 -68 0 -133 0 -144 0 -141 1 -160
-2 -187 -28 l-28 -26 -28 27 c-32 31 -67 34 -101 11 -15 -11 -25 -13 -30 -6
-3 5 -25 15 -49 21 -48 13 -102 3 -132 -24 -17 -16 -20 -15 -47 4 -33 24 -133
32 -157 12 -8 -7 -20 -9 -27 -6 -19 12 -72 20 -109 17z m97 -54 c39 -40 3
-108 -58 -108 -27 0 -29 -3 -29 -40 0 -36 -2 -40 -25 -40 l-25 0 0 106 0 106
60 -4 c37 -3 67 -11 77 -20z m177 1 c15 -12 26 -30 26 -44 0 -24 -23 -55 -41
-55 -6 0 4 -20 21 -45 l31 -45 -34 0 c-30 0 -36 5 -52 40 -10 22 -22 40 -28
40 -6 0 -7 -16 -3 -40 6 -39 6 -40 -24 -40 l-30 0 0 105 0 105 54 0 c39 0 60
-6 80 -21z m233 -14 c32 -37 31 -104 -1 -142 -21 -24 -32 -28 -76 -28 -44 0
-55 4 -76 28 -43 51 -27 143 30 168 37 16 99 3 123 -26z m143 -37 c14 -37 27
-68 30 -68 3 0 17 30 31 68 24 61 29 67 58 70 l31 3 0 -106 0 -106 -27 3 c-26
3 -27 5 -24 58 3 63 -7 60 -30 -8 -11 -33 -22 -48 -36 -50 -17 -3 -24 6 -38
47 -24 73 -38 76 -30 7 l7 -56 -28 0 -29 0 0 105 0 106 30 -3 c27 -3 32 -9 55
-70z m324 53 c9 -8 16 -28 16 -47 0 -38 -29 -64 -72 -64 -26 0 -28 -3 -28 -40
0 -36 -2 -40 -25 -40 l-25 0 0 106 0 106 59 -4 c33 -2 66 -10 75 -17z m196 -4
c0 -18 -5 -23 -26 -22 l-27 0 2 -82 2 -83 -32 0 -32 0 5 85 4 85 -28 0 c-21 0
-28 5 -28 20 0 18 7 20 80 20 77 0 80 -1 80 -23z m-140 -143 c0 -26 8 -43 28
-63 l28 -28 -29 -11 c-19 -7 -37 -8 -53 -1 -30 11 -91 11 -119 0 -10 -4 -31
-3 -47 3 -22 8 -31 7 -46 -7 -24 -22 -37 -21 -71 4 -27 20 -30 20 -54 5 -20
-14 -29 -15 -51 -5 -23 11 -30 9 -56 -9 -25 -19 -30 -20 -38 -7 -4 9 -21 19
-38 24 l-29 8 30 14 c17 7 33 18 36 23 4 5 21 -1 38 -13 21 -15 36 -19 48 -14
15 8 60 8 257 2 22 0 53 26 61 52 4 11 17 22 30 25 13 3 31 14 41 25 22 25 34
16 34 -27z m-930 -9 c0 -8 13 -29 29 -47 27 -30 31 -31 56 -20 22 10 35 10 57
1 23 -9 32 -8 53 5 30 20 44 20 84 0 35 -18 34 -26 -8 -44 -25 -10 -34 -9 -53
4 -29 20 -47 20 -70 -1 -18 -16 -21 -16 -54 2 -30 16 -40 17 -66 7 -20 -7 -37
-8 -49 -2 -10 6 -29 10 -43 10 -14 0 -26 3 -26 6 0 3 14 25 30 50 31 43 60 58
60 29z m-10 -145 c0 -17 -7 -20 -40 -20 -33 0 -40 -3 -40 -20 0 -16 7 -20 35
-20 28 0 35 -4 35 -20 0 -16 -7 -20 -35 -20 -31 0 -35 -3 -35 -25 0 -22 4 -24
38 -22 31 2 37 -1 37 -18 0 -17 -7 -20 -62 -20 l-63 0 0 103 0 102 65 0 c58 0
65 -2 65 -20z m120 -35 c45 -78 53 -79 48 -6 l-4 61 28 0 28 0 0 -106 0 -105
-27 3 c-22 2 -35 15 -63 65 -19 34 -39 63 -43 63 -4 0 -5 -30 -1 -66 l7 -66
-29 4 -29 3 -3 103 -3 102 30 0 c25 0 34 -8 61 -55z m305 30 c35 -34 32 -48
-7 -40 -18 4 -40 12 -49 18 -27 17 -69 -16 -69 -53 0 -51 60 -81 90 -45 11 13
8 15 -19 15 -24 0 -31 4 -31 20 0 18 7 20 55 20 52 0 55 -2 55 -24 0 -33 -44
-83 -80 -91 -34 -7 -81 14 -104 47 -27 38 -20 95 13 129 40 39 109 41 146 4z
m105 -80 l0 -105 -25 0 -25 0 0 105 0 105 25 0 25 0 0 -105z m132 45 c18 -33
37 -60 42 -60 5 0 6 27 3 60 l-5 60 29 0 29 0 0 -105 0 -105 -25 0 c-20 0 -33
13 -66 65 -22 36 -43 65 -46 65 -3 0 -3 -28 -2 -62 4 -62 4 -63 -23 -66 l-28
-3 0 105 0 106 30 0 c25 0 33 -8 62 -60z m266 43 c-2 -13 -14 -19 -41 -21 -29
-3 -37 -7 -37 -23 0 -15 7 -19 35 -19 28 0 35 -4 35 -20 0 -16 -7 -20 -35 -20
-31 0 -35 -3 -35 -25 0 -22 4 -24 37 -22 31 2 38 -1 38 -18 0 -17 -7 -20 -62
-20 l-63 0 0 103 0 102 66 0 c57 0 65 -2 62 -17z m162 -3 c0 -17 -7 -20 -40
-20 -33 0 -40 -3 -40 -20 0 -16 7 -20 35 -20 28 0 35 -4 35 -20 0 -16 -7 -20
-36 -20 -31 0 -35 -3 -32 -22 3 -20 8 -23 41 -20 33 3 37 0 37 -21 0 -24 -2
-24 -62 -22 l-63 2 -3 102 -3 101 66 0 c58 0 65 -2 65 -20z m179 -6 c27 -35
26 -50 -4 -78 l-24 -23 24 -36 c31 -45 31 -47 -3 -47 -24 0 -33 8 -55 48 l-27
47 0 -47 c0 -44 -2 -48 -25 -48 l-25 0 0 105 0 105 59 0 c52 0 62 -3 80 -26z
m105 -76 l-2 -103 -26 -3 -26 -3 0 105 0 106 28 0 27 0 -1 -102z m133 40 l38
-63 3 63 c3 58 4 62 27 62 25 0 25 0 25 -106 l0 -105 -27 3 c-22 2 -35 15 -63
65 -19 34 -38 63 -41 63 -4 0 -4 -30 -1 -66 l5 -66 -28 4 -27 3 -2 103 -1 102
27 0 c22 0 33 -11 65 -62z m298 37 c35 -34 32 -48 -7 -40 -18 4 -37 11 -42 16
-25 23 -76 -13 -76 -53 0 -47 62 -77 90 -43 11 13 8 15 -19 15 -24 0 -31 4
-31 20 0 18 7 20 55 20 54 0 55 0 55 -30 0 -35 -37 -76 -79 -85 -36 -8 -84 15
-107 50 -24 36 -13 103 21 132 37 33 107 32 140 -2z"/>
<path d="M180 555 c0 -20 5 -25 24 -25 27 0 40 22 23 39 -21 21 -47 13 -47
-14z"/>
<path d="M360 555 c0 -23 4 -26 28 -23 38 4 38 42 0 46 -24 3 -28 0 -28 -23z"/>
<path d="M562 558 c-7 -7 -12 -26 -12 -43 0 -38 16 -55 50 -55 34 0 50 17 50
55 0 38 -16 55 -50 55 -14 0 -31 -5 -38 -12z"/>
<path d="M1060 556 c0 -21 5 -26 26 -26 21 0 25 4 22 23 -2 14 -11 23 -25 25
-19 3 -23 -1 -23 -22z"/>
<path d="M1440 255 c0 -27 26 -35 47 -14 17 17 4 39 -23 39 -19 0 -24 -5 -24
-25z"/>
<path d="M2574 618 l29 -25 -29 -20 c-39 -27 -80 -40 -68 -22 6 12 5 11 -9 0
-14 -11 -15 -17 -6 -28 7 -8 15 -10 18 -6 10 13 89 53 105 53 9 0 19 -12 22
-26 5 -19 9 -22 15 -12 6 9 9 7 9 -9 0 -33 17 -37 23 -5 6 31 -9 56 -30 48 -7
-3 -13 1 -13 9 0 8 -6 15 -14 15 -7 0 -19 7 -26 16 -8 8 -23 20 -34 25 -13 7
-10 1 8 -13z"/>
<path d="M2350 589 c-11 -8 -8 -9 13 -4 36 7 67 -2 67 -20 0 -18 -40 -29 -80
-23 -24 4 -27 2 -18 -9 6 -8 17 -12 23 -9 7 2 32 0 55 -5 28 -6 47 -6 53 0 6
6 2 8 -13 4 -18 -5 -21 -2 -18 13 2 10 12 20 23 22 11 2 25 9 30 14 7 8 6 9
-1 5 -7 -4 -28 0 -48 8 -42 18 -65 19 -86 4z"/>
<path d="M2699 563 c10 -19 11 -25 11 -48 0 -8 5 -15 11 -15 8 0 9 12 4 37 -6
32 -5 35 8 25 12 -10 16 -9 21 3 4 12 -2 15 -30 15 -30 0 -33 -2 -25 -17z"/>
<path d="M2751 477 c-1 -16 -5 -26 -11 -22 -6 4 -10 -5 -10 -19 0 -14 -5 -26
-11 -26 -6 0 -9 -24 -7 -65 2 -36 7 -65 12 -65 5 0 6 25 3 56 -5 48 -2 62 17
93 16 25 21 42 15 56 -6 17 -8 16 -8 -8z"/>
<path d="M2673 388 c1 -42 5 -74 9 -72 10 6 9 91 -2 124 -5 17 -8 0 -7 -52z"/>
<path d="M2785 282 c2 -35 8 -69 15 -75 14 -15 8 74 -8 113 -8 20 -9 12 -7
-38z"/>
<path d="M2743 285 c-7 -16 -15 -59 -18 -95 -8 -95 -11 -113 -19 -137 -5 -14
-3 -23 3 -23 6 0 11 -5 11 -11 0 -5 -4 -7 -10 -4 -5 3 -10 1 -10 -4 0 -26 29
-8 35 22 3 17 11 51 17 74 8 34 8 46 -3 59 -9 11 -10 17 -1 23 12 7 11 28 -1
48 -4 7 2 18 15 27 12 9 17 16 11 16 -6 0 -13 8 -15 18 -2 12 -6 9 -15 -13z"/>
<path d="M2678 210 c-11 -27 -16 -100 -7 -106 5 -3 12 1 15 9 7 20 0 115 -8
97z"/>
<path d="M2634 196 c-6 -6 -9 -16 -7 -22 2 -6 -6 -21 -17 -33 -11 -13 -17 -28
-14 -32 3 -5 -2 -9 -10 -9 -9 0 -16 -4 -16 -10 0 -22 30 -8 55 24 18 24 25 44
23 64 -2 22 -6 27 -14 18z"/>
<path d="M2795 169 c-4 -13 -2 -25 5 -29 8 -5 7 -23 -5 -70 -9 -34 -13 -65 -9
-69 4 -3 9 0 11 7 3 6 11 12 18 12 7 0 16 7 19 16 10 26 6 30 -9 10 -14 -18
-15 -17 -15 22 0 23 5 42 10 42 6 0 10 7 10 15 0 8 -5 15 -10 15 -6 0 -8 11
-4 25 8 31 -12 34 -21 4z"/>
<path d="M2969 133 c-1 -27 0 -61 1 -77 1 -16 -2 -26 -8 -22 -6 4 -8 -2 -5
-14 12 -44 22 -15 25 70 2 50 0 90 -4 90 -5 0 -8 -21 -9 -47z"/>
<path d="M2612 79 c-11 -17 -21 -20 -58 -17 -33 2 -43 0 -39 -10 2 -7 -5 -17
-18 -21 -16 -7 -9 -8 26 -6 27 2 54 9 61 14 7 6 15 9 17 7 2 -3 12 9 21 25 19
33 10 40 -10 8z"/>
<path d="M2766 78 c-2 -7 -8 -28 -14 -45 -16 -50 1 -39 20 12 10 25 13 45 7
45 -5 0 -11 -6 -13 -12z"/>
<path d="M2652 35 l-22 -35 25 0 c18 0 25 5 25 19 0 11 3 26 6 35 11 29 -11
16 -34 -19z"/>
<path d="M2366 25 c-28 -12 -27 -12 20 -11 27 0 55 -1 63 -4 7 -3 16 1 19 9 3
10 0 12 -13 8 -9 -4 -22 -4 -28 0 -18 11 -30 11 -61 -2z"/>
</g>
</svg>
